<mxfile host="app.diagrams.net" modified="2023-04-19T03:21:07.130Z" agent="Mozilla/5.0 (Windows NT 10.0; Win64; x64) AppleWebKit/537.36 (KHTML, like Gecko) Chrome/99.0.4844.51 Safari/537.36" etag="xj_kQ5NyJxfEGdiSSH0j" version="21.1.8" type="github">
  <diagram id="W1gtHZHEk-VzK49k9rLr" name="日志底座流程">
    <mxGraphModel dx="1962" dy="922" grid="1" gridSize="10" guides="1" tooltips="1" connect="1" arrows="1" fold="1" page="0" pageScale="1" pageWidth="850" pageHeight="1100" math="0" shadow="0">
      <root>
        <mxCell id="0" />
        <mxCell id="1" parent="0" />
        <mxCell id="xAIOd0ErEvqK_eipaosE-27" value="" style="rounded=1;whiteSpace=wrap;html=1;fontFamily=Lucida Console;fontSize=14;fillColor=#cce5ff;dashed=1;dashPattern=8 8;strokeColor=#36393d;" parent="1" vertex="1">
          <mxGeometry x="1000" y="290" width="220" height="390" as="geometry" />
        </mxCell>
        <mxCell id="xAIOd0ErEvqK_eipaosE-24" value="" style="rounded=1;whiteSpace=wrap;html=1;fontFamily=Lucida Console;fontSize=14;fillColor=none;dashed=1;dashPattern=8 8;" parent="1" vertex="1">
          <mxGeometry x="70" y="546" width="1170" height="150" as="geometry" />
        </mxCell>
        <mxCell id="xAIOd0ErEvqK_eipaosE-13" value="" style="rounded=1;whiteSpace=wrap;html=1;fontFamily=Lucida Console;fontSize=14;fillColor=none;dashed=1;dashPattern=8 8;" parent="1" vertex="1">
          <mxGeometry x="70" y="276" width="1170" height="150" as="geometry" />
        </mxCell>
        <mxCell id="xAIOd0ErEvqK_eipaosE-37" style="edgeStyle=orthogonalEdgeStyle;rounded=0;orthogonalLoop=1;jettySize=auto;html=1;exitX=0.5;exitY=0;exitDx=0;exitDy=0;exitPerimeter=0;entryX=0;entryY=0.5;entryDx=0;entryDy=0;entryPerimeter=0;strokeColor=#000000;fontFamily=Lucida Console;fontSize=12;fontColor=#000000;" parent="1" source="xAIOd0ErEvqK_eipaosE-1" target="xAIOd0ErEvqK_eipaosE-2" edge="1">
          <mxGeometry relative="1" as="geometry">
            <Array as="points">
              <mxPoint x="40" y="495" />
              <mxPoint x="40" y="356" />
            </Array>
          </mxGeometry>
        </mxCell>
        <mxCell id="sn0Bml8RUC3rLnrex5kn-1" value="&lt;b&gt;订阅落地&lt;/b&gt;" style="edgeLabel;html=1;align=center;verticalAlign=middle;resizable=0;points=[];fontFamily=Lucida Console;" vertex="1" connectable="0" parent="xAIOd0ErEvqK_eipaosE-37">
          <mxGeometry x="0.006" y="2" relative="1" as="geometry">
            <mxPoint y="35" as="offset" />
          </mxGeometry>
        </mxCell>
        <mxCell id="xAIOd0ErEvqK_eipaosE-38" style="edgeStyle=orthogonalEdgeStyle;rounded=0;orthogonalLoop=1;jettySize=auto;html=1;exitX=0.5;exitY=0;exitDx=0;exitDy=0;exitPerimeter=0;entryX=0;entryY=0.5;entryDx=0;entryDy=0;strokeColor=#000000;fontFamily=Lucida Console;fontSize=12;fontColor=#000000;" parent="1" source="xAIOd0ErEvqK_eipaosE-1" target="xAIOd0ErEvqK_eipaosE-16" edge="1">
          <mxGeometry relative="1" as="geometry">
            <Array as="points">
              <mxPoint x="40" y="495" />
              <mxPoint x="40" y="616" />
            </Array>
          </mxGeometry>
        </mxCell>
        <mxCell id="xAIOd0ErEvqK_eipaosE-1" value="&lt;font style=&quot;font-size: 14px;&quot;&gt;&lt;b&gt;pageview&lt;/b&gt;&lt;/font&gt;" style="shape=cylinder3;whiteSpace=wrap;html=1;boundedLbl=1;backgroundOutline=1;size=15;direction=south;fillColor=#f8cecc;strokeColor=#b85450;fontFamily=Lucida Console;" parent="1" vertex="1">
          <mxGeometry x="-140" y="460" width="120" height="70" as="geometry" />
        </mxCell>
        <mxCell id="xAIOd0ErEvqK_eipaosE-5" style="edgeStyle=orthogonalEdgeStyle;rounded=0;orthogonalLoop=1;jettySize=auto;html=1;exitX=1;exitY=0.5;exitDx=0;exitDy=0;exitPerimeter=0;fontFamily=Lucida Console;fontSize=14;" parent="1" source="xAIOd0ErEvqK_eipaosE-2" target="xAIOd0ErEvqK_eipaosE-4" edge="1">
          <mxGeometry relative="1" as="geometry" />
        </mxCell>
        <mxCell id="xAIOd0ErEvqK_eipaosE-2" value="&lt;font style=&quot;font-size: 12px;&quot;&gt;&lt;span style=&quot;font-size: 12px;&quot;&gt;pageview&lt;br style=&quot;font-size: 12px;&quot;&gt;HDFS 分钟&lt;/span&gt;&lt;/font&gt;" style="shape=cylinder3;whiteSpace=wrap;html=1;boundedLbl=1;backgroundOutline=1;size=15;fontFamily=Lucida Console;fontSize=12;fillColor=#d5e8d4;strokeColor=#82b366;fontStyle=1" parent="1" vertex="1">
          <mxGeometry x="140" y="316" width="100" height="80" as="geometry" />
        </mxCell>
        <mxCell id="xAIOd0ErEvqK_eipaosE-8" style="edgeStyle=orthogonalEdgeStyle;rounded=0;orthogonalLoop=1;jettySize=auto;html=1;exitX=1;exitY=0.5;exitDx=0;exitDy=0;entryX=0;entryY=0.5;entryDx=0;entryDy=0;entryPerimeter=0;fontFamily=Lucida Console;fontSize=14;" parent="1" source="xAIOd0ErEvqK_eipaosE-4" target="xAIOd0ErEvqK_eipaosE-7" edge="1">
          <mxGeometry relative="1" as="geometry" />
        </mxCell>
        <mxCell id="xAIOd0ErEvqK_eipaosE-29" style="edgeStyle=orthogonalEdgeStyle;rounded=0;orthogonalLoop=1;jettySize=auto;html=1;entryX=0;entryY=0.5;entryDx=0;entryDy=0;entryPerimeter=0;fontFamily=Lucida Console;fontSize=14;fontColor=#FF3333;strokeColor=#FF3333;" parent="1" source="xAIOd0ErEvqK_eipaosE-4" target="xAIOd0ErEvqK_eipaosE-18" edge="1">
          <mxGeometry relative="1" as="geometry" />
        </mxCell>
        <mxCell id="xAIOd0ErEvqK_eipaosE-36" value="&lt;font&gt;&lt;b&gt;分钟发送&lt;/b&gt;&lt;/font&gt;" style="edgeLabel;html=1;align=center;verticalAlign=middle;resizable=0;points=[];fontSize=12;fontFamily=Lucida Console;fontColor=#000000;" parent="xAIOd0ErEvqK_eipaosE-29" vertex="1" connectable="0">
          <mxGeometry x="0.0767" relative="1" as="geometry">
            <mxPoint as="offset" />
          </mxGeometry>
        </mxCell>
        <mxCell id="xAIOd0ErEvqK_eipaosE-4" value="ETL&lt;br style=&quot;font-size: 12px;&quot;&gt;Spark Streaming" style="rounded=1;whiteSpace=wrap;html=1;fontFamily=Lucida Console;fontSize=12;fillColor=#fff2cc;strokeColor=#d6b656;fontStyle=1" parent="1" vertex="1">
          <mxGeometry x="335" y="316" width="150" height="80" as="geometry" />
        </mxCell>
        <mxCell id="xAIOd0ErEvqK_eipaosE-11" style="edgeStyle=orthogonalEdgeStyle;rounded=0;orthogonalLoop=1;jettySize=auto;html=1;exitX=1;exitY=0.5;exitDx=0;exitDy=0;exitPerimeter=0;entryX=0;entryY=0.5;entryDx=0;entryDy=0;fontFamily=Lucida Console;fontSize=14;" parent="1" source="xAIOd0ErEvqK_eipaosE-7" target="xAIOd0ErEvqK_eipaosE-10" edge="1">
          <mxGeometry relative="1" as="geometry" />
        </mxCell>
        <mxCell id="xAIOd0ErEvqK_eipaosE-7" value="etl pageview&lt;br style=&quot;border-color: var(--border-color); font-size: 12px;&quot;&gt;&lt;span style=&quot;font-size: 12px;&quot;&gt;HDFS 分钟&lt;/span&gt;" style="shape=cylinder3;whiteSpace=wrap;html=1;boundedLbl=1;backgroundOutline=1;size=15;fontFamily=Lucida Console;fontSize=12;fillColor=#d5e8d4;strokeColor=#82b366;fontStyle=1" parent="1" vertex="1">
          <mxGeometry x="580" y="316" width="100" height="80" as="geometry" />
        </mxCell>
        <mxCell id="xAIOd0ErEvqK_eipaosE-9" value="etl_pageview_曝光&lt;br style=&quot;font-size: 13px;&quot;&gt;etl_pageview_点击&lt;br style=&quot;font-size: 13px;&quot;&gt;etl_pageview_转化" style="shape=cylinder3;whiteSpace=wrap;html=1;boundedLbl=1;backgroundOutline=1;size=15;fontFamily=Lucida Console;fontSize=13;fillColor=#dae8fc;strokeColor=#6c8ebf;fontStyle=1" parent="1" vertex="1">
          <mxGeometry x="1032.5" y="309" width="155" height="94" as="geometry" />
        </mxCell>
        <mxCell id="xAIOd0ErEvqK_eipaosE-12" style="edgeStyle=orthogonalEdgeStyle;rounded=0;orthogonalLoop=1;jettySize=auto;html=1;exitX=1;exitY=0.5;exitDx=0;exitDy=0;entryX=0;entryY=0.5;entryDx=0;entryDy=0;entryPerimeter=0;fontFamily=Lucida Console;fontSize=14;" parent="1" source="xAIOd0ErEvqK_eipaosE-10" target="xAIOd0ErEvqK_eipaosE-9" edge="1">
          <mxGeometry relative="1" as="geometry" />
        </mxCell>
        <mxCell id="xAIOd0ErEvqK_eipaosE-10" value="小时入湖&lt;br style=&quot;font-size: 12px;&quot;&gt;Spark" style="rounded=1;whiteSpace=wrap;html=1;fontFamily=Lucida Console;fontSize=12;fillColor=#fff2cc;strokeColor=#d6b656;fontStyle=1" parent="1" vertex="1">
          <mxGeometry x="780" y="316" width="130" height="80" as="geometry" />
        </mxCell>
        <mxCell id="xAIOd0ErEvqK_eipaosE-15" value="&lt;b&gt;&lt;font color=&quot;#ff3333&quot;&gt;日志底座离线&lt;/font&gt;&lt;/b&gt;" style="text;html=1;strokeColor=none;fillColor=none;align=center;verticalAlign=middle;whiteSpace=wrap;rounded=0;dashed=1;dashPattern=8 8;fontFamily=Lucida Console;fontSize=14;" parent="1" vertex="1">
          <mxGeometry x="80" y="276" width="90" height="30" as="geometry" />
        </mxCell>
        <mxCell id="xAIOd0ErEvqK_eipaosE-19" style="edgeStyle=orthogonalEdgeStyle;rounded=0;orthogonalLoop=1;jettySize=auto;html=1;exitX=1;exitY=0.5;exitDx=0;exitDy=0;entryX=0.5;entryY=1;entryDx=0;entryDy=0;entryPerimeter=0;fontFamily=Lucida Console;fontSize=14;fontColor=#FF3333;" parent="1" source="xAIOd0ErEvqK_eipaosE-16" target="xAIOd0ErEvqK_eipaosE-18" edge="1">
          <mxGeometry relative="1" as="geometry" />
        </mxCell>
        <mxCell id="xAIOd0ErEvqK_eipaosE-16" value="实时ETL" style="rounded=1;whiteSpace=wrap;html=1;fontFamily=Lucida Console;fontSize=13;fillColor=#e1d5e7;strokeColor=#9673a6;" parent="1" vertex="1">
          <mxGeometry x="200" y="576" width="120" height="80" as="geometry" />
        </mxCell>
        <mxCell id="xAIOd0ErEvqK_eipaosE-21" style="edgeStyle=orthogonalEdgeStyle;rounded=0;orthogonalLoop=1;jettySize=auto;html=1;exitX=0.5;exitY=0;exitDx=0;exitDy=0;exitPerimeter=0;entryX=0;entryY=0.5;entryDx=0;entryDy=0;fontFamily=Lucida Console;fontSize=14;fontColor=#FF3333;" parent="1" source="xAIOd0ErEvqK_eipaosE-18" target="xAIOd0ErEvqK_eipaosE-20" edge="1">
          <mxGeometry relative="1" as="geometry" />
        </mxCell>
        <mxCell id="xAIOd0ErEvqK_eipaosE-18" value="&lt;font style=&quot;font-size: 14px;&quot;&gt;&lt;b&gt;etl pageview&lt;/b&gt;&lt;/font&gt;" style="shape=cylinder3;whiteSpace=wrap;html=1;boundedLbl=1;backgroundOutline=1;size=15;direction=south;fillColor=#f8cecc;strokeColor=#b85450;fillStyle=auto;shadow=0;fontFamily=Lucida Console;" parent="1" vertex="1">
          <mxGeometry x="440" y="581" width="150" height="70" as="geometry" />
        </mxCell>
        <mxCell id="xAIOd0ErEvqK_eipaosE-23" style="edgeStyle=orthogonalEdgeStyle;rounded=0;orthogonalLoop=1;jettySize=auto;html=1;exitX=1;exitY=0.5;exitDx=0;exitDy=0;entryX=0;entryY=0.5;entryDx=0;entryDy=0;entryPerimeter=0;fontFamily=Lucida Console;fontSize=14;fontColor=#FF3333;" parent="1" source="xAIOd0ErEvqK_eipaosE-20" target="xAIOd0ErEvqK_eipaosE-22" edge="1">
          <mxGeometry relative="1" as="geometry" />
        </mxCell>
        <mxCell id="xAIOd0ErEvqK_eipaosE-20" value="实时入湖&lt;br style=&quot;font-size: 13px;&quot;&gt;Flink" style="rounded=1;whiteSpace=wrap;html=1;fontFamily=Lucida Console;fontSize=13;fillColor=#e1d5e7;strokeColor=#9673a6;" parent="1" vertex="1">
          <mxGeometry x="730" y="576" width="120" height="80" as="geometry" />
        </mxCell>
        <mxCell id="xAIOd0ErEvqK_eipaosE-22" value="实时曝光&lt;br style=&quot;font-size: 13px;&quot;&gt;实时点击&lt;br style=&quot;font-size: 13px;&quot;&gt;实时转化" style="shape=cylinder3;whiteSpace=wrap;html=1;boundedLbl=1;backgroundOutline=1;size=15;fontFamily=Lucida Console;fontSize=13;fillColor=#dae8fc;strokeColor=#6c8ebf;" parent="1" vertex="1">
          <mxGeometry x="1025" y="576" width="165" height="80" as="geometry" />
        </mxCell>
        <mxCell id="xAIOd0ErEvqK_eipaosE-25" value="&lt;b&gt;&lt;font color=&quot;#ff3333&quot;&gt;日志底座实时&lt;/font&gt;&lt;/b&gt;" style="text;html=1;strokeColor=none;fillColor=none;align=center;verticalAlign=middle;whiteSpace=wrap;rounded=0;dashed=1;dashPattern=8 8;fontFamily=Lucida Console;fontSize=14;" parent="1" vertex="1">
          <mxGeometry x="80" y="666" width="90" height="30" as="geometry" />
        </mxCell>
        <mxCell id="xAIOd0ErEvqK_eipaosE-28" value="&lt;b&gt;&lt;font color=&quot;#000000&quot;&gt;数据湖 Iceberg&lt;/font&gt;&lt;/b&gt;" style="text;html=1;strokeColor=none;fillColor=none;align=center;verticalAlign=middle;whiteSpace=wrap;rounded=0;dashed=1;dashPattern=8 8;fontFamily=Lucida Console;fontSize=14;fontColor=#FF3333;" parent="1" vertex="1">
          <mxGeometry x="1055" y="465" width="110" height="40" as="geometry" />
        </mxCell>
        <mxCell id="xAIOd0ErEvqK_eipaosE-34" value="&lt;b style=&quot;font-size: 13px;&quot;&gt;tdbank&lt;/b&gt;" style="text;html=1;strokeColor=none;fillColor=none;align=center;verticalAlign=middle;whiteSpace=wrap;rounded=0;shadow=0;dashed=1;dashPattern=8 8;sketch=0;fillStyle=auto;fontFamily=Lucida Console;fontSize=13;fontColor=#000000;" parent="1" vertex="1">
          <mxGeometry x="-110" y="530" width="60" height="30" as="geometry" />
        </mxCell>
        <mxCell id="xAIOd0ErEvqK_eipaosE-35" value="&lt;b style=&quot;font-size: 13px;&quot;&gt;tdbank&lt;/b&gt;" style="text;html=1;strokeColor=none;fillColor=none;align=center;verticalAlign=middle;whiteSpace=wrap;rounded=0;shadow=0;dashed=1;dashPattern=8 8;sketch=0;fillStyle=auto;fontFamily=Lucida Console;fontSize=13;fontColor=#000000;" parent="1" vertex="1">
          <mxGeometry x="485" y="651" width="60" height="30" as="geometry" />
        </mxCell>
      </root>
    </mxGraphModel>
  </diagram>
</mxfile>
